<svg xmlns="http://www.w3.org/2000/svg" xmlns:xlink="http://www.w3.org/1999/xlink" width="500" zoomAndPan="magnify" viewBox="0 0 375 374.999991" height="500" preserveAspectRatio="xMidYMid meet" version="1.0"><defs><g/><clipPath id="602cefd989"><path d="M 10.109375 39 L 363 39 L 363 337.5 L 10.109375 337.5 Z M 10.109375 39 " clip-rule="nonzero"/></clipPath></defs><g clip-path="url(#602cefd989)"><path fill="#000000" d="M 362.273438 114.65625 C 361.792969 106.3125 364.851562 96.976562 359.308594 89.71875 C 349.597656 87.039062 339.910156 84.332031 330.167969 81.945312 C 329.65625 69.875 330.609375 57.765625 329.722656 45.726562 C 328.320312 37.511719 318.320312 40.375 312.519531 40.3125 C 262.257812 42.824219 215.941406 71.269531 186.382812 111.246094 C 154.589844 67.925781 102.480469 38.078125 47.914062 40.304688 C 46.832031 41.230469 44.632812 43.078125 43.519531 44 C 41.859375 56.519531 43.425781 69.292969 42.75 81.90625 C 31.703125 86.367188 15.367188 85.667969 10.109375 98.414062 C 12.179688 103.445312 12.660156 108.894531 12.433594 114.308594 C 11.957031 178.203125 12.878906 242.074219 11.988281 305.945312 C 11.15625 310.753906 12.050781 319.261719 18.960938 317.765625 C 41.289062 309.644531 65.335938 306.710938 89.035156 308.085938 C 121.238281 310.597656 154.683594 318.152344 181.152344 337.453125 C 183.734375 337.453125 188.859375 337.453125 191.40625 337.484375 C 206.058594 326.238281 223.828125 320.125 241.382812 315.058594 C 279 304.515625 319.613281 305.503906 356.589844 318.148438 C 364.488281 316.8125 362.355469 308.148438 362.421875 302.410156 C 362.082031 239.847656 362.371094 177.25 362.273438 114.65625 Z M 25.878906 300.464844 C 26.070312 234.488281 25.847656 168.484375 25.972656 102.519531 C 31.609375 100.511719 37.28125 98.507812 42.949219 96.53125 C 42.824219 149.214844 42.855469 201.90625 42.917969 254.59375 C 42.1875 264.183594 54.164062 262.492188 60.40625 263.097656 C 97.675781 264.65625 131.597656 283.613281 158.675781 308.234375 C 116.878906 291.355469 69.292969 287.53125 25.878906 300.464844 Z M 207.816406 311.617188 C 228.488281 291.386719 252.316406 273.234375 280.632812 265.425781 C 295.222656 260.484375 310.667969 260.007812 325.832031 258.574219 C 330.734375 257.96875 329.71875 251.855469 330.066406 248.414062 C 330.035156 198.015625 330.003906 147.625 330.035156 97.230469 C 336.117188 99.074219 342.203125 100.921875 348.316406 102.707031 C 349.179688 168.679688 348.347656 234.683594 348.730469 300.652344 C 302.390625 287.816406 251.777344 292.402344 207.816406 311.617188 Z M 207.816406 311.617188 " fill-opacity="1" fill-rule="nonzero"/></g><g fill="#ffffff" fill-opacity="1"><g transform="translate(86.234111, 172.391881)"><g><path d="M 15.59375 13.015625 C 13.039062 13.015625 10.695312 12.628906 8.5625 11.859375 C 6.425781 11.097656 4.703125 9.878906 3.390625 8.203125 C 2.085938 6.523438 1.4375 4.347656 1.4375 1.671875 C 1.4375 0.941406 1.578125 -0.226562 1.859375 -1.84375 C 2.148438 -3.457031 2.914062 -5.394531 4.15625 -7.65625 L 7.65625 -6.03125 C 6.914062 -4.53125 6.378906 -3.238281 6.046875 -2.15625 C 5.710938 -1.070312 5.546875 -0.0351562 5.546875 0.953125 C 5.546875 2.929688 6.046875 4.507812 7.046875 5.6875 C 8.054688 6.875 9.398438 7.722656 11.078125 8.234375 C 12.753906 8.742188 14.613281 9 16.65625 9 C 20.351562 9 23.375 8.34375 25.71875 7.03125 C 28.0625 5.726562 29.550781 4.085938 30.1875 2.109375 C 30.375 1.566406 30.535156 0.941406 30.671875 0.234375 L 27.21875 0.234375 C 25.78125 0.234375 24.457031 0.0351562 23.25 -0.359375 C 22.039062 -0.753906 21.066406 -1.398438 20.328125 -2.296875 C 19.597656 -3.191406 19.203125 -4.359375 19.140625 -5.796875 C 19.109375 -6.972656 19.289062 -8.148438 19.6875 -9.328125 C 20.082031 -10.503906 20.644531 -11.585938 21.375 -12.578125 C 22.113281 -13.566406 22.976562 -14.359375 23.96875 -14.953125 C 24.957031 -15.546875 26.023438 -15.84375 27.171875 -15.84375 C 29.304688 -15.84375 31.125 -14.867188 32.625 -12.921875 C 34.125 -10.972656 34.921875 -7.894531 35.015625 -3.6875 L 39.140625 -3.6875 C 39.804688 -3.6875 40.289062 -3.5 40.59375 -3.125 C 40.894531 -2.757812 41.046875 -2.320312 41.046875 -1.8125 C 41.046875 -1.300781 40.820312 -0.832031 40.375 -0.40625 C 39.925781 0.0195312 39.351562 0.234375 38.65625 0.234375 L 34.59375 0.234375 C 34.4375 0.972656 34.226562 1.738281 33.96875 2.53125 C 33.71875 3.332031 33.414062 4.097656 33.0625 4.828125 C 32.007812 6.835938 30.617188 8.441406 28.890625 9.640625 C 27.171875 10.835938 25.175781 11.695312 22.90625 12.21875 C 20.644531 12.75 18.207031 13.015625 15.59375 13.015625 Z M 29.046875 -3.6875 L 31.09375 -3.6875 C 31.09375 -6.332031 30.675781 -8.367188 29.84375 -9.796875 C 29.019531 -11.234375 28.003906 -11.953125 26.796875 -11.953125 C 26.117188 -11.953125 25.484375 -11.6875 24.890625 -11.15625 C 24.304688 -10.632812 23.835938 -9.957031 23.484375 -9.125 C 23.140625 -8.300781 22.96875 -7.425781 22.96875 -6.5 C 22.96875 -5.382812 23.46875 -4.632812 24.46875 -4.25 C 25.476562 -3.875 27.003906 -3.6875 29.046875 -3.6875 Z M 30.5625 -20.765625 C 29.894531 -20.765625 29.328125 -20.992188 28.859375 -21.453125 C 28.398438 -21.921875 28.171875 -22.472656 28.171875 -23.109375 C 28.171875 -23.742188 28.398438 -24.300781 28.859375 -24.78125 C 29.328125 -25.257812 29.894531 -25.5 30.5625 -25.5 C 31.195312 -25.5 31.742188 -25.257812 32.203125 -24.78125 C 32.671875 -24.300781 32.90625 -23.742188 32.90625 -23.109375 C 32.90625 -22.472656 32.671875 -21.921875 32.203125 -21.453125 C 31.742188 -20.992188 31.195312 -20.765625 30.5625 -20.765625 Z M 24.015625 -20.765625 C 23.335938 -20.765625 22.769531 -20.992188 22.3125 -21.453125 C 21.851562 -21.921875 21.625 -22.472656 21.625 -23.109375 C 21.625 -23.742188 21.851562 -24.300781 22.3125 -24.78125 C 22.769531 -25.257812 23.335938 -25.5 24.015625 -25.5 C 24.648438 -25.5 25.195312 -25.257812 25.65625 -24.78125 C 26.125 -24.300781 26.359375 -23.742188 26.359375 -23.109375 C 26.359375 -22.472656 26.125 -21.921875 25.65625 -21.453125 C 25.195312 -20.992188 24.648438 -20.765625 24.015625 -20.765625 Z M 24.015625 -20.765625 "/></g></g></g><g fill="#ffffff" fill-opacity="1"><g transform="translate(124.308822, 172.391881)"><g><path d="M 1.90625 8.1875 L 1.90625 5.5 L 12.625 2.34375 L 12.625 5.078125 Z M 1.90625 8.1875 "/></g></g></g><g fill="#ffffff" fill-opacity="1"><g transform="translate(124.88286, 172.391881)"><g><path d="M 0 0.234375 L 0.4375 -3.6875 C 2.25 -3.6875 3.519531 -3.859375 4.25 -4.203125 C 4.988281 -4.554688 5.410156 -5.171875 5.515625 -6.046875 C 5.628906 -6.929688 5.65625 -8.1875 5.59375 -9.8125 L 4.6875 -34.15625 L 8.5625 -34.15625 L 9.515625 -10.234375 C 9.617188 -7.972656 9.46875 -6.0625 9.0625 -4.5 C 8.664062 -2.9375 7.773438 -1.753906 6.390625 -0.953125 C 5.003906 -0.160156 2.875 0.234375 0 0.234375 Z M 0 0.234375 "/></g></g></g><g fill="#ffffff" fill-opacity="1"><g transform="translate(137.319332, 172.391881)"><g><path d="M 13.921875 0.234375 C 11.335938 0.234375 9.375 -0.0507812 8.03125 -0.625 C 6.695312 -1.195312 5.773438 -2.085938 5.265625 -3.296875 C 4.753906 -4.515625 4.46875 -6.078125 4.40625 -7.984375 L 3.4375 -34.15625 L 7.375 -34.15625 L 8.328125 -9.515625 C 8.390625 -7.953125 8.539062 -6.75 8.78125 -5.90625 C 9.019531 -5.0625 9.5625 -4.476562 10.40625 -4.15625 C 11.25 -3.84375 12.582031 -3.6875 14.40625 -3.6875 C 15.070312 -3.6875 15.554688 -3.5 15.859375 -3.125 C 16.160156 -2.757812 16.3125 -2.320312 16.3125 -1.8125 C 16.3125 -1.300781 16.085938 -0.832031 15.640625 -0.40625 C 15.191406 0.0195312 14.617188 0.234375 13.921875 0.234375 Z M 13.921875 0.234375 "/></g></g></g><g fill="#ffffff" fill-opacity="1"><g transform="translate(150.999436, 167.79962)"><g><path d="M 1.90625 -28.796875 L 1.90625 -31.484375 L 12.625 -34.640625 L 12.625 -31.90625 Z M 1.90625 -28.796875 "/></g></g></g><g fill="#ffffff" fill-opacity="1"><g transform="translate(151.238613, 172.391881)"><g><path d="M 0 0.234375 L 0.4375 -3.6875 C 3.71875 -3.6875 6.90625 -4.171875 10 -5.140625 C 13.09375 -6.117188 15.914062 -7.5 18.46875 -9.28125 C 17.226562 -10.363281 15.707031 -11.238281 13.90625 -11.90625 C 12.101562 -12.582031 10.113281 -12.921875 7.9375 -12.921875 C 7.144531 -12.921875 6.441406 -12.878906 5.828125 -12.796875 C 5.222656 -12.710938 4.492188 -12.578125 3.640625 -12.390625 L 2.875 -16.03125 C 4.65625 -16.570312 6.34375 -16.84375 7.9375 -16.84375 C 9.601562 -16.84375 11.101562 -16.640625 12.4375 -16.234375 C 13.78125 -15.835938 15 -15.351562 16.09375 -14.78125 C 17.195312 -14.207031 18.234375 -13.632812 19.203125 -13.0625 C 20.179688 -12.488281 21.128906 -12 22.046875 -11.59375 C 22.972656 -11.195312 23.929688 -11 24.921875 -11 L 25.9375 -11 L 26.265625 -7.5625 C 25.273438 -7.5625 24.316406 -7.445312 23.390625 -7.21875 C 23.992188 -5.789062 24.851562 -4.84375 25.96875 -4.375 C 27.09375 -3.914062 28.753906 -3.6875 30.953125 -3.6875 C 31.617188 -3.6875 32.101562 -3.5 32.40625 -3.125 C 32.71875 -2.757812 32.875 -2.320312 32.875 -1.8125 C 32.875 -1.300781 32.648438 -0.832031 32.203125 -0.40625 C 31.753906 0.0195312 31.175781 0.234375 30.46875 0.234375 C 28.75 0.234375 27.210938 0.0820312 25.859375 -0.21875 C 24.503906 -0.519531 23.347656 -1.125 22.390625 -2.03125 C 21.429688 -2.9375 20.726562 -4.300781 20.28125 -6.125 C 19.070312 -5.550781 17.835938 -4.90625 16.578125 -4.1875 C 15.316406 -3.46875 13.921875 -2.769531 12.390625 -2.09375 C 10.859375 -1.425781 9.085938 -0.867188 7.078125 -0.421875 C 5.066406 0.015625 2.707031 0.234375 0 0.234375 Z M 7.515625 -21.765625 C 6.835938 -21.765625 6.269531 -21.992188 5.8125 -22.453125 C 5.351562 -22.921875 5.125 -23.472656 5.125 -24.109375 C 5.125 -24.742188 5.351562 -25.300781 5.8125 -25.78125 C 6.269531 -26.257812 6.835938 -26.5 7.515625 -26.5 C 8.148438 -26.5 8.695312 -26.257812 9.15625 -25.78125 C 9.625 -25.300781 9.859375 -24.742188 9.859375 -24.109375 C 9.859375 -23.472656 9.625 -22.921875 9.15625 -22.453125 C 8.695312 -21.992188 8.148438 -21.765625 7.515625 -21.765625 Z M 7.515625 -21.765625 "/></g></g></g><g fill="#ffffff" fill-opacity="1"><g transform="translate(181.707986, 172.391881)"><g><path d="M 0 0.234375 L 0.4375 -3.6875 C 2.25 -3.6875 3.519531 -3.859375 4.25 -4.203125 C 4.988281 -4.554688 5.410156 -5.171875 5.515625 -6.046875 C 5.628906 -6.929688 5.65625 -8.1875 5.59375 -9.8125 L 4.6875 -34.15625 L 8.5625 -34.15625 L 9.515625 -10.234375 C 9.617188 -7.972656 9.46875 -6.0625 9.0625 -4.5 C 8.664062 -2.9375 7.773438 -1.753906 6.390625 -0.953125 C 5.003906 -0.160156 2.875 0.234375 0 0.234375 Z M 0 0.234375 "/></g></g></g><g fill="#ffffff" fill-opacity="1"><g transform="translate(194.144458, 172.391881)"><g><path d="M 4.40625 0 L 3.4375 -34.15625 L 7.3125 -34.15625 L 8.28125 0 Z M 4.40625 0 "/></g></g></g><g fill="#ffffff" fill-opacity="1"><g transform="translate(205.520369, 172.391881)"><g/></g></g><g fill="#ffffff" fill-opacity="1"><g transform="translate(217.244946, 172.391881)"><g><path d="M 3.546875 18.796875 C 2.960938 16.722656 2.476562 14.671875 2.09375 12.640625 C 1.71875 10.617188 1.429688 8.765625 1.234375 7.078125 C 1.046875 5.390625 0.953125 4.003906 0.953125 2.921875 C 0.953125 0.972656 1.300781 -0.644531 2 -1.9375 C 2.707031 -3.226562 3.648438 -4.234375 4.828125 -4.953125 C 6.015625 -5.671875 7.332031 -6.15625 8.78125 -6.40625 C 10.226562 -6.664062 11.722656 -6.753906 13.265625 -6.671875 C 14.816406 -6.585938 16.28125 -6.390625 17.65625 -6.078125 C 17.75 -7.515625 17.601562 -8.867188 17.21875 -10.140625 C 16.84375 -11.421875 16.238281 -12.453125 15.40625 -13.234375 C 14.570312 -14.015625 13.550781 -14.40625 12.34375 -14.40625 C 10.007812 -14.40625 8 -12.804688 6.3125 -9.609375 L 3.34375 -11.25 C 4.5625 -13.832031 5.988281 -15.648438 7.625 -16.703125 C 9.269531 -17.753906 10.921875 -18.28125 12.578125 -18.28125 C 14.203125 -18.28125 15.570312 -17.9375 16.6875 -17.25 C 17.8125 -16.5625 18.695312 -15.664062 19.34375 -14.5625 C 20 -13.46875 20.476562 -12.289062 20.78125 -11.03125 C 21.09375 -9.769531 21.25 -8.566406 21.25 -7.421875 C 21.25 -6.234375 21.039062 -5.054688 20.625 -3.890625 C 20.207031 -2.734375 19.820312 -1.898438 19.46875 -1.390625 C 16.570312 -2.242188 14.03125 -2.695312 11.84375 -2.75 C 9.65625 -2.800781 7.945312 -2.351562 6.71875 -1.40625 C 5.488281 -0.46875 4.875 1.050781 4.875 3.15625 C 4.875 4.363281 4.96875 5.773438 5.15625 7.390625 C 5.351562 9.003906 5.625 10.710938 5.96875 12.515625 C 6.320312 14.316406 6.738281 16.09375 7.21875 17.84375 Z M 3.546875 18.796875 "/></g></g></g><g fill="#ffffff" fill-opacity="1"><g transform="translate(240.39592, 172.391881)"><g><path d="M 6.796875 0.234375 C 5.929688 0.234375 5.0625 0.160156 4.1875 0.015625 C 3.3125 -0.117188 2.695312 -0.21875 2.34375 -0.28125 L 2.875 -4.0625 C 5.738281 -3.6875 8.359375 -3.726562 10.734375 -4.1875 C 13.117188 -4.644531 15.007812 -5.800781 16.40625 -7.65625 C 15.164062 -9.695312 13.300781 -12.175781 10.8125 -15.09375 C 8.320312 -18.007812 5.351562 -21.015625 1.90625 -24.109375 L 4.5 -26.84375 C 7.875 -23.65625 10.660156 -20.769531 12.859375 -18.1875 C 15.066406 -15.601562 16.84375 -13.351562 18.1875 -11.4375 C 18.5625 -12.800781 18.78125 -14.363281 18.84375 -16.125 L 18.1875 -34.15625 L 22.109375 -34.15625 L 23.0625 -9.515625 C 23.125 -7.953125 23.273438 -6.75 23.515625 -5.90625 C 23.753906 -5.0625 24.296875 -4.476562 25.140625 -4.15625 C 25.984375 -3.84375 27.316406 -3.6875 29.140625 -3.6875 C 29.804688 -3.6875 30.289062 -3.5 30.59375 -3.125 C 30.894531 -2.757812 31.046875 -2.320312 31.046875 -1.8125 C 31.046875 -1.300781 30.820312 -0.832031 30.375 -0.40625 C 29.925781 0.0195312 29.351562 0.234375 28.65625 0.234375 C 26.425781 0.234375 24.65625 0.0195312 23.34375 -0.40625 C 22.039062 -0.832031 21.082031 -1.5 20.46875 -2.40625 C 19.863281 -3.320312 19.46875 -4.5 19.28125 -5.9375 C 18.289062 -4.175781 17.078125 -2.847656 15.640625 -1.953125 C 14.203125 -1.066406 12.707031 -0.476562 11.15625 -0.1875 C 9.613281 0.09375 8.160156 0.234375 6.796875 0.234375 Z M 6.796875 0.234375 "/></g></g></g><g fill="#ffffff" fill-opacity="1"><g transform="translate(269.047653, 172.391881)"><g><path d="M 0 0.234375 L 0.484375 -3.6875 L 4.96875 -3.6875 C 6.820312 -3.6875 8.304688 -3.789062 9.421875 -4 C 10.535156 -4.207031 11.351562 -4.476562 11.875 -4.8125 C 12.40625 -5.144531 12.757812 -5.507812 12.9375 -5.90625 C 13.113281 -6.300781 13.203125 -6.707031 13.203125 -7.125 C 13.203125 -7.863281 12.921875 -8.773438 12.359375 -9.859375 C 11.804688 -10.941406 10.671875 -12.34375 8.953125 -14.0625 C 7.765625 -15.28125 6.582031 -16.347656 5.40625 -17.265625 C 4.226562 -18.191406 3.253906 -18.972656 2.484375 -19.609375 C 1.722656 -20.253906 1.34375 -20.71875 1.34375 -21 C 1.34375 -21.738281 1.421875 -22.425781 1.578125 -23.0625 C 1.734375 -23.695312 1.988281 -24.191406 2.34375 -24.546875 C 3.625 -25.910156 5.625 -27.28125 8.34375 -28.65625 C 11.070312 -30.03125 14.476562 -31.753906 18.5625 -33.828125 L 20.1875 -30.28125 C 17.289062 -28.882812 14.921875 -27.726562 13.078125 -26.8125 C 11.242188 -25.90625 9.726562 -25.109375 8.53125 -24.421875 C 7.34375 -23.734375 6.238281 -23.039062 5.21875 -22.34375 C 8.945312 -19.3125 11.804688 -16.59375 13.796875 -14.1875 C 15.796875 -11.78125 16.796875 -9.347656 16.796875 -6.890625 C 16.796875 -6.191406 16.664062 -5.425781 16.40625 -4.59375 C 16.15625 -3.757812 15.613281 -2.972656 14.78125 -2.234375 C 13.957031 -1.503906 12.710938 -0.910156 11.046875 -0.453125 C 9.390625 0.00390625 7.160156 0.234375 4.359375 0.234375 Z M 0 0.234375 "/></g></g></g><g fill="#ffffff" fill-opacity="1"><g transform="translate(80.199717, 238.489895)"><g><path d="M 30.75 0 L 26.4375 0 L 23.296875 -9.375 L 8.734375 -9.375 L 5.5625 0 L 1.359375 0 L 13.265625 -34.15625 L 18.828125 -34.15625 Z M 15.71875 -30.015625 L 9.859375 -12.734375 L 22.140625 -12.734375 L 16.3125 -30.015625 Z M 15.71875 -30.015625 "/></g></g></g><g fill="#ffffff" fill-opacity="1"><g transform="translate(112.29049, 238.489895)"><g><path d="M 14.78125 0.484375 C 12.507812 0.484375 10.46875 -0.03125 8.65625 -1.0625 C 6.851562 -2.09375 5.429688 -3.617188 4.390625 -5.640625 C 3.347656 -7.660156 2.828125 -10.070312 2.828125 -12.875 C 2.828125 -15.6875 3.347656 -18.101562 4.390625 -20.125 C 5.429688 -22.144531 6.851562 -23.671875 8.65625 -24.703125 C 10.46875 -25.742188 12.507812 -26.265625 14.78125 -26.265625 C 17.507812 -26.265625 19.679688 -25.75 21.296875 -24.71875 C 22.910156 -23.6875 24.070312 -22.316406 24.78125 -20.609375 L 22.1875 -18.734375 L 21.71875 -18.734375 C 21.019531 -20.148438 20.117188 -21.1875 19.015625 -21.84375 C 17.921875 -22.507812 16.507812 -22.84375 14.78125 -22.84375 C 13.195312 -22.84375 11.804688 -22.46875 10.609375 -21.71875 C 9.410156 -20.976562 8.476562 -19.859375 7.8125 -18.359375 C 7.15625 -16.867188 6.828125 -15.039062 6.828125 -12.875 C 6.828125 -10.71875 7.160156 -8.894531 7.828125 -7.40625 C 8.492188 -5.925781 9.421875 -4.804688 10.609375 -4.046875 C 11.804688 -3.296875 13.195312 -2.921875 14.78125 -2.921875 C 16.570312 -2.921875 18.054688 -3.320312 19.234375 -4.125 C 20.410156 -4.9375 21.332031 -6.21875 22 -7.96875 L 22.5 -7.96875 L 25 -6.5 C 24.320312 -4.332031 23.125 -2.625 21.40625 -1.375 C 19.6875 -0.132812 17.476562 0.484375 14.78125 0.484375 Z M 14.78125 0.484375 "/></g></g></g><g fill="#ffffff" fill-opacity="1"><g transform="translate(138.845955, 238.489895)"><g><path d="M 10.625 0.484375 C 8.09375 0.484375 6.113281 -0.175781 4.6875 -1.5 C 3.257812 -2.820312 2.546875 -4.710938 2.546875 -7.171875 C 2.546875 -8.703125 2.859375 -9.988281 3.484375 -11.03125 C 4.117188 -12.082031 5.097656 -12.9375 6.421875 -13.59375 C 7.742188 -14.257812 9.472656 -14.773438 11.609375 -15.140625 C 13.472656 -15.453125 14.890625 -15.800781 15.859375 -16.1875 C 16.835938 -16.570312 17.492188 -17.003906 17.828125 -17.484375 C 18.171875 -17.972656 18.34375 -18.582031 18.34375 -19.3125 C 18.34375 -20.488281 17.941406 -21.382812 17.140625 -22 C 16.335938 -22.625 15.046875 -22.9375 13.265625 -22.9375 C 11.597656 -22.9375 10.164062 -22.613281 8.96875 -21.96875 C 7.78125 -21.320312 6.691406 -20.363281 5.703125 -19.09375 L 5.234375 -19.09375 L 3.359375 -21.71875 C 4.453125 -23.113281 5.835938 -24.21875 7.515625 -25.03125 C 9.203125 -25.851562 11.117188 -26.265625 13.265625 -26.265625 C 16.304688 -26.265625 18.546875 -25.597656 19.984375 -24.265625 C 21.421875 -22.929688 22.140625 -21.085938 22.140625 -18.734375 L 22.140625 -5.0625 C 22.140625 -3.632812 22.75 -2.921875 23.96875 -2.921875 C 24.375 -2.921875 24.765625 -2.988281 25.140625 -3.125 L 25.46875 -3.03125 L 25.90625 -0.390625 C 25.625 -0.203125 25.253906 -0.0625 24.796875 0.03125 C 24.335938 0.132812 23.867188 0.1875 23.390625 0.1875 C 21.972656 0.1875 20.898438 -0.125 20.171875 -0.75 C 19.453125 -1.375 18.988281 -2.289062 18.78125 -3.5 L 18.296875 -3.546875 C 17.554688 -2.191406 16.5625 -1.179688 15.3125 -0.515625 C 14.070312 0.148438 12.507812 0.484375 10.625 0.484375 Z M 11.46875 -2.546875 C 12.90625 -2.546875 14.144531 -2.875 15.1875 -3.53125 C 16.238281 -4.195312 17.046875 -5.128906 17.609375 -6.328125 C 18.171875 -7.523438 18.453125 -8.910156 18.453125 -10.484375 L 18.453125 -13.765625 L 18.015625 -13.859375 C 17.429688 -13.453125 16.726562 -13.109375 15.90625 -12.828125 C 15.082031 -12.554688 13.929688 -12.3125 12.453125 -12.09375 C 10.953125 -11.894531 9.757812 -11.582031 8.875 -11.15625 C 8 -10.738281 7.375 -10.207031 7 -9.5625 C 6.632812 -8.914062 6.453125 -8.117188 6.453125 -7.171875 C 6.453125 -5.660156 6.894531 -4.507812 7.78125 -3.71875 C 8.664062 -2.9375 9.894531 -2.546875 11.46875 -2.546875 Z M 11.46875 -2.546875 "/></g></g></g><g fill="#ffffff" fill-opacity="1"><g transform="translate(165.494843, 238.489895)"><g><path d="M 13.359375 0.484375 C 11.285156 0.484375 9.457031 -0.00390625 7.875 -0.984375 C 6.300781 -1.972656 5.066406 -3.460938 4.171875 -5.453125 C 3.273438 -7.453125 2.828125 -9.925781 2.828125 -12.875 C 2.828125 -15.8125 3.289062 -18.28125 4.21875 -20.28125 C 5.15625 -22.289062 6.445312 -23.789062 8.09375 -24.78125 C 9.738281 -25.769531 11.644531 -26.265625 13.8125 -26.265625 C 15.519531 -26.265625 17.054688 -25.9375 18.421875 -25.28125 C 19.796875 -24.632812 20.972656 -23.570312 21.953125 -22.09375 L 22.453125 -22.1875 L 22.453125 -36.109375 L 26.265625 -36.109375 L 26.265625 0 L 22.453125 0 L 22.453125 -3.765625 L 21.953125 -3.859375 C 21.117188 -2.578125 19.976562 -1.53125 18.53125 -0.71875 C 17.09375 0.0820312 15.367188 0.484375 13.359375 0.484375 Z M 14.546875 -2.921875 C 16.953125 -2.921875 18.867188 -3.738281 20.296875 -5.375 C 21.734375 -7.019531 22.453125 -9.519531 22.453125 -12.875 C 22.453125 -16.238281 21.734375 -18.738281 20.296875 -20.375 C 18.867188 -22.019531 16.953125 -22.84375 14.546875 -22.84375 C 12.078125 -22.84375 10.171875 -22.039062 8.828125 -20.4375 C 7.492188 -18.832031 6.828125 -16.3125 6.828125 -12.875 C 6.828125 -6.238281 9.398438 -2.921875 14.546875 -2.921875 Z M 14.546875 -2.921875 "/></g></g></g><g fill="#ffffff" fill-opacity="1"><g transform="translate(196.25434, 238.489895)"><g><path d="M 24.546875 -12 L 6.84375 -11.96875 C 6.96875 -8.84375 7.726562 -6.550781 9.125 -5.09375 C 10.519531 -3.644531 12.421875 -2.921875 14.828125 -2.921875 C 16.671875 -2.921875 18.148438 -3.242188 19.265625 -3.890625 C 20.390625 -4.546875 21.269531 -5.578125 21.90625 -6.984375 L 22.40625 -6.984375 L 24.875 -5.515625 C 24.132812 -3.640625 22.941406 -2.171875 21.296875 -1.109375 C 19.648438 -0.046875 17.492188 0.484375 14.828125 0.484375 C 12.335938 0.484375 10.195312 -0.00390625 8.40625 -0.984375 C 6.613281 -1.960938 5.234375 -3.445312 4.265625 -5.4375 C 3.304688 -7.4375 2.828125 -9.914062 2.828125 -12.875 C 2.828125 -15.800781 3.335938 -18.269531 4.359375 -20.28125 C 5.378906 -22.289062 6.769531 -23.789062 8.53125 -24.78125 C 10.300781 -25.769531 12.320312 -26.265625 14.59375 -26.265625 C 17.894531 -26.265625 20.472656 -25.332031 22.328125 -23.46875 C 24.179688 -21.601562 25.117188 -18.84375 25.140625 -15.1875 C 25.140625 -13.75 25.109375 -12.78125 25.046875 -12.28125 Z M 21.375 -15.1875 C 21.3125 -17.925781 20.703125 -19.914062 19.546875 -21.15625 C 18.398438 -22.40625 16.75 -23.03125 14.59375 -23.03125 C 12.34375 -23.03125 10.570312 -22.398438 9.28125 -21.140625 C 8 -19.890625 7.21875 -17.90625 6.9375 -15.1875 Z M 21.375 -15.1875 "/></g></g></g><g fill="#ffffff" fill-opacity="1"><g transform="translate(223.720679, 238.489895)"><g><path d="M 4.484375 0 L 4.484375 -25.765625 L 8.109375 -25.765625 L 8.109375 -21.953125 L 8.59375 -21.859375 C 9.46875 -23.304688 10.523438 -24.398438 11.765625 -25.140625 C 13.003906 -25.890625 14.488281 -26.265625 16.21875 -26.265625 C 18.207031 -26.265625 19.742188 -25.882812 20.828125 -25.125 C 21.921875 -24.363281 22.773438 -23.144531 23.390625 -21.46875 L 23.875 -21.46875 C 24.757812 -23.039062 25.851562 -24.234375 27.15625 -25.046875 C 28.457031 -25.859375 30.054688 -26.265625 31.953125 -26.265625 C 34.597656 -26.265625 36.570312 -25.546875 37.875 -24.109375 C 39.175781 -22.671875 39.828125 -20.488281 39.828125 -17.5625 L 39.828125 0 L 36.015625 0 L 36.015625 -17.46875 C 36.015625 -19.34375 35.617188 -20.722656 34.828125 -21.609375 C 34.046875 -22.492188 32.785156 -22.9375 31.046875 -22.9375 C 28.992188 -22.9375 27.316406 -22.1875 26.015625 -20.6875 C 24.710938 -19.195312 24.0625 -16.738281 24.0625 -13.3125 L 24.0625 0 L 20.25 0 L 20.25 -17.46875 C 20.25 -19.34375 19.851562 -20.722656 19.0625 -21.609375 C 18.28125 -22.492188 17.019531 -22.9375 15.28125 -22.9375 C 13.21875 -22.9375 11.535156 -22.210938 10.234375 -20.765625 C 8.941406 -19.316406 8.296875 -16.96875 8.296875 -13.71875 L 8.296875 0 Z M 4.484375 0 "/></g></g></g><g fill="#ffffff" fill-opacity="1"><g transform="translate(267.629451, 238.489895)"><g><path d="M 21.8125 -25.765625 L 25.71875 -25.765625 L 14.203125 4.046875 C 13.546875 5.691406 12.8125 7.015625 12 8.015625 C 11.195312 9.023438 10.238281 9.765625 9.125 10.234375 C 8.019531 10.703125 6.695312 10.9375 5.15625 10.9375 C 4.289062 10.9375 3.476562 10.859375 2.71875 10.703125 C 1.96875 10.554688 1.316406 10.351562 0.765625 10.09375 L 1.46875 7.078125 L 1.890625 6.9375 C 2.265625 7.125 2.734375 7.28125 3.296875 7.40625 C 3.859375 7.539062 4.429688 7.609375 5.015625 7.609375 C 6.066406 7.609375 6.929688 7.46875 7.609375 7.1875 C 8.296875 6.914062 8.882812 6.453125 9.375 5.796875 C 9.863281 5.148438 10.320312 4.257812 10.75 3.125 L 11.65625 0.609375 L 1.3125 -25.765625 L 5.421875 -25.765625 L 13.53125 -4.75 L 13.96875 -4.75 Z M 21.8125 -25.765625 "/></g></g></g></svg>