<svg xmlns="http://www.w3.org/2000/svg" xmlns:xlink="http://www.w3.org/1999/xlink" width="500" zoomAndPan="magnify" viewBox="0 0 375 374.999991" height="500" preserveAspectRatio="xMidYMid meet" version="1.0"><defs><g/><clipPath id="d4aba75f40"><path d="M 49.472656 54 L 324 54 L 324 286.148438 L 49.472656 286.148438 Z M 49.472656 54 " clip-rule="nonzero"/></clipPath></defs><g clip-path="url(#d4aba75f40)"><path fill="#000000" d="M 323.457031 112.886719 C 323.085938 106.398438 325.46875 99.144531 321.152344 93.496094 C 313.597656 91.417969 306.058594 89.3125 298.480469 87.453125 C 298.082031 78.070312 298.824219 68.65625 298.132812 59.292969 C 297.042969 52.90625 289.261719 55.132812 284.75 55.082031 C 245.644531 57.039062 209.613281 79.15625 186.613281 110.234375 C 161.878906 76.554688 121.339844 53.347656 78.886719 55.078125 C 78.039062 55.796875 76.332031 57.234375 75.464844 57.953125 C 74.171875 67.683594 75.390625 77.617188 74.867188 87.425781 C 66.273438 90.894531 53.5625 90.347656 49.472656 100.257812 C 51.082031 104.171875 51.457031 108.40625 51.28125 112.617188 C 50.90625 162.296875 51.625 211.957031 50.933594 261.617188 C 50.285156 265.355469 50.980469 271.972656 56.359375 270.808594 C 73.730469 264.492188 92.4375 262.210938 110.875 263.277344 C 135.929688 265.234375 161.953125 271.105469 182.542969 286.113281 C 184.554688 286.113281 188.542969 286.113281 190.523438 286.136719 C 201.921875 277.394531 215.75 272.640625 229.40625 268.703125 C 258.671875 260.503906 290.269531 261.273438 319.039062 271.101562 C 325.183594 270.066406 323.523438 263.328125 323.574219 258.867188 C 323.3125 210.222656 323.535156 161.554688 323.457031 112.886719 Z M 61.738281 257.355469 C 61.890625 206.058594 61.714844 154.742188 61.8125 103.449219 C 66.199219 101.886719 70.609375 100.332031 75.019531 98.792969 C 74.925781 139.757812 74.949219 180.726562 74.996094 221.691406 C 74.429688 229.144531 83.746094 227.832031 88.605469 228.300781 C 117.601562 229.515625 143.992188 244.253906 165.058594 263.398438 C 132.539062 250.273438 95.515625 247.300781 61.738281 257.355469 Z M 203.289062 266.023438 C 219.371094 250.296875 237.910156 236.183594 259.941406 230.109375 C 271.292969 226.269531 283.308594 225.898438 295.105469 224.785156 C 298.921875 224.316406 298.128906 219.5625 298.402344 216.882812 C 298.378906 177.699219 298.355469 138.519531 298.378906 99.335938 C 303.109375 100.773438 307.847656 102.207031 312.601562 103.597656 C 313.273438 154.890625 312.625 206.210938 312.921875 257.5 C 276.871094 247.523438 237.492188 251.085938 203.289062 266.023438 Z M 203.289062 266.023438 " fill-opacity="1" fill-rule="nonzero"/></g><g fill="#ffffff" fill-opacity="1"><g transform="translate(101.128345, 153.597373)"><g><path d="M 13.078125 10.1875 C 10.847656 10.1875 8.816406 9.859375 6.984375 9.203125 C 5.148438 8.554688 3.6875 7.535156 2.59375 6.140625 C 1.507812 4.742188 0.96875 2.910156 0.96875 0.640625 C 0.96875 -0.210938 1.078125 -1.257812 1.296875 -2.5 C 1.523438 -3.75 2.117188 -5.398438 3.078125 -7.453125 L 7.640625 -5.6875 C 7.085938 -4.34375 6.710938 -3.296875 6.515625 -2.546875 C 6.316406 -1.796875 6.21875 -1.035156 6.21875 -0.265625 C 6.21875 1.410156 6.910156 2.695312 8.296875 3.59375 C 9.679688 4.488281 11.570312 4.9375 13.96875 4.9375 C 15.789062 4.9375 17.390625 4.71875 18.765625 4.28125 C 20.140625 3.851562 21.25 3.28125 22.09375 2.5625 C 22.945312 1.851562 23.519531 1.097656 23.8125 0.296875 L 23.859375 0.1875 L 22.890625 0.1875 C 20.035156 0.1875 17.925781 -0.316406 16.5625 -1.328125 C 15.207031 -2.335938 14.519531 -3.832031 14.5 -5.8125 C 14.5 -6.925781 14.703125 -8.015625 15.109375 -9.078125 C 15.523438 -10.140625 16.09375 -11.082031 16.8125 -11.90625 C 17.539062 -12.726562 18.359375 -13.382812 19.265625 -13.875 C 20.179688 -14.363281 21.125 -14.609375 22.09375 -14.609375 C 24.269531 -14.609375 26.03125 -13.765625 27.375 -12.078125 C 28.726562 -10.390625 29.488281 -8.0625 29.65625 -5.09375 L 32.390625 -5.09375 C 33.316406 -5.09375 33.984375 -4.847656 34.390625 -4.359375 C 34.804688 -3.878906 35.015625 -3.273438 35.015625 -2.546875 C 35.015625 -1.742188 34.753906 -1.085938 34.234375 -0.578125 C 33.710938 -0.0664062 32.972656 0.1875 32.015625 0.1875 L 29.0625 0.1875 C 28.757812 1.28125 28.359375 2.289062 27.859375 3.21875 C 26.617188 5.539062 24.734375 7.28125 22.203125 8.4375 C 19.679688 9.601562 16.640625 10.1875 13.078125 10.1875 Z M 19.59375 -6.703125 C 19.59375 -6.328125 19.695312 -5.988281 19.90625 -5.6875 C 20.113281 -5.394531 20.5625 -5.175781 21.25 -5.03125 C 21.9375 -4.894531 23.003906 -4.851562 24.453125 -4.90625 C 24.398438 -6.40625 24.148438 -7.535156 23.703125 -8.296875 C 23.253906 -9.054688 22.671875 -9.4375 21.953125 -9.4375 C 21.472656 -9.4375 21.054688 -9.285156 20.703125 -8.984375 C 20.359375 -8.691406 20.085938 -8.332031 19.890625 -7.90625 C 19.691406 -7.476562 19.59375 -7.078125 19.59375 -6.703125 Z M 18.84375 -18.0625 C 18.113281 -18.0625 17.492188 -18.316406 16.984375 -18.828125 C 16.472656 -19.335938 16.21875 -19.941406 16.21875 -20.640625 C 16.21875 -21.359375 16.472656 -21.976562 16.984375 -22.5 C 17.492188 -23.03125 18.113281 -23.296875 18.84375 -23.296875 C 19.539062 -23.296875 20.140625 -23.03125 20.640625 -22.5 C 21.140625 -21.976562 21.390625 -21.359375 21.390625 -20.640625 C 21.390625 -19.941406 21.140625 -19.335938 20.640625 -18.828125 C 20.140625 -18.316406 19.539062 -18.0625 18.84375 -18.0625 Z M 25.328125 -18.015625 C 24.597656 -18.015625 23.976562 -18.265625 23.46875 -18.765625 C 22.957031 -19.265625 22.703125 -19.878906 22.703125 -20.609375 C 22.703125 -21.328125 22.957031 -21.945312 23.46875 -22.46875 C 23.976562 -23 24.597656 -23.265625 25.328125 -23.265625 C 26.023438 -23.265625 26.625 -23 27.125 -22.46875 C 27.625 -21.945312 27.875 -21.328125 27.875 -20.609375 C 27.875 -19.878906 27.625 -19.265625 27.125 -18.765625 C 26.625 -18.265625 26.023438 -18.015625 25.328125 -18.015625 Z M 25.328125 -18.015625 "/></g></g></g><g fill="#ffffff" fill-opacity="1"><g transform="translate(133.146039, 153.597373)"><g><path d="M 0 0.1875 L 0.375 -5.0625 C 1.519531 -5.0625 2.34375 -5.175781 2.84375 -5.40625 C 3.34375 -5.644531 3.640625 -6.09375 3.734375 -6.75 C 3.835938 -7.414062 3.863281 -8.382812 3.8125 -9.65625 L 3.140625 -27.421875 L 8.421875 -27.421875 L 9.171875 -9.28125 C 9.222656 -7.832031 9.164062 -6.53125 9 -5.375 C 8.84375 -4.21875 8.457031 -3.222656 7.84375 -2.390625 C 7.226562 -1.566406 6.289062 -0.929688 5.03125 -0.484375 C 3.769531 -0.0351562 2.09375 0.1875 0 0.1875 Z M 0 0.1875 "/></g></g></g><g fill="#ffffff" fill-opacity="1"><g transform="translate(144.267973, 153.597373)"><g><path d="M 11.875 0.1875 C 9.550781 0.1875 7.757812 -0.046875 6.5 -0.515625 C 5.238281 -0.992188 4.351562 -1.738281 3.84375 -2.75 C 3.332031 -3.757812 3.050781 -5.039062 3 -6.59375 L 2.203125 -27.421875 L 7.453125 -27.421875 L 8.234375 -9.09375 C 8.285156 -7.945312 8.410156 -7.085938 8.609375 -6.515625 C 8.804688 -5.941406 9.179688 -5.554688 9.734375 -5.359375 C 10.285156 -5.160156 11.125 -5.0625 12.25 -5.0625 C 13.175781 -5.0625 13.847656 -4.816406 14.265625 -4.328125 C 14.691406 -3.835938 14.90625 -3.234375 14.90625 -2.515625 C 14.90625 -1.734375 14.640625 -1.085938 14.109375 -0.578125 C 13.585938 -0.0664062 12.84375 0.1875 11.875 0.1875 Z M 11.875 0.1875 "/></g></g></g><g fill="#ffffff" fill-opacity="1"><g transform="translate(156.176306, 153.597373)"><g><path d="M 0 0.1875 L 0.375 -5.0625 C 3.070312 -5.0625 5.691406 -5.359375 8.234375 -5.953125 C 10.785156 -6.554688 13.046875 -7.519531 15.015625 -8.84375 C 13.867188 -9.507812 12.601562 -10.03125 11.21875 -10.40625 C 9.832031 -10.78125 8.316406 -10.96875 6.671875 -10.96875 C 6.046875 -10.96875 5.398438 -10.9375 4.734375 -10.875 C 4.078125 -10.8125 3.410156 -10.707031 2.734375 -10.5625 L 1.984375 -15.6875 C 2.710938 -15.863281 3.472656 -16 4.265625 -16.09375 C 5.066406 -16.195312 5.789062 -16.25 6.4375 -16.25 C 8.132812 -16.25 9.65625 -16.023438 11 -15.578125 C 12.351562 -15.128906 13.582031 -14.601562 14.6875 -14 C 15.800781 -13.40625 16.835938 -12.882812 17.796875 -12.4375 C 18.765625 -11.988281 19.710938 -11.765625 20.640625 -11.765625 L 22.015625 -11.765625 L 22.625 -6.78125 C 22.070312 -6.75 21.546875 -6.671875 21.046875 -6.546875 C 20.546875 -6.421875 20.0625 -6.273438 19.59375 -6.109375 C 20.21875 -5.703125 20.960938 -5.425781 21.828125 -5.28125 C 22.703125 -5.132812 23.71875 -5.0625 24.875 -5.0625 C 25.820312 -5.0625 26.492188 -4.816406 26.890625 -4.328125 C 27.285156 -3.835938 27.484375 -3.234375 27.484375 -2.515625 C 27.484375 -1.734375 27.226562 -1.085938 26.71875 -0.578125 C 26.207031 -0.0664062 25.46875 0.1875 24.5 0.1875 C 22.5 0.1875 20.734375 -0.0976562 19.203125 -0.671875 C 17.679688 -1.242188 16.460938 -2.367188 15.546875 -4.046875 C 14.390625 -3.398438 13.117188 -2.75 11.734375 -2.09375 C 10.347656 -1.445312 8.707031 -0.90625 6.8125 -0.46875 C 4.914062 -0.03125 2.644531 0.1875 0 0.1875 Z M 6.453125 -20.109375 C 5.671875 -20.109375 5.007812 -20.367188 4.46875 -20.890625 C 3.9375 -21.421875 3.671875 -22.070312 3.671875 -22.84375 C 3.671875 -23.613281 3.9375 -24.273438 4.46875 -24.828125 C 5.007812 -25.378906 5.671875 -25.65625 6.453125 -25.65625 C 7.203125 -25.65625 7.84375 -25.378906 8.375 -24.828125 C 8.914062 -24.273438 9.1875 -23.613281 9.1875 -22.84375 C 9.1875 -22.070312 8.914062 -21.421875 8.375 -20.890625 C 7.84375 -20.367188 7.203125 -20.109375 6.453125 -20.109375 Z M 6.453125 -20.109375 "/></g></g></g><g fill="#ffffff" fill-opacity="1"><g transform="translate(180.667035, 153.597373)"><g><path d="M 0 0.1875 L 0.375 -5.0625 C 1.519531 -5.0625 2.34375 -5.175781 2.84375 -5.40625 C 3.34375 -5.644531 3.640625 -6.09375 3.734375 -6.75 C 3.835938 -7.414062 3.863281 -8.382812 3.8125 -9.65625 L 3.140625 -27.421875 L 8.421875 -27.421875 L 9.171875 -9.28125 C 9.222656 -7.832031 9.164062 -6.53125 9 -5.375 C 8.84375 -4.21875 8.457031 -3.222656 7.84375 -2.390625 C 7.226562 -1.566406 6.289062 -0.929688 5.03125 -0.484375 C 3.769531 -0.0351562 2.09375 0.1875 0 0.1875 Z M 0 0.1875 "/></g></g></g><g fill="#ffffff" fill-opacity="1"><g transform="translate(191.788969, 153.597373)"><g><path d="M 3 0 L 2.203125 -27.421875 L 7.453125 -27.421875 L 8.234375 0 Z M 3 0 "/></g></g></g><g fill="#ffffff" fill-opacity="1"><g transform="translate(202.012158, 153.597373)"><g/></g></g><g fill="#ffffff" fill-opacity="1"><g transform="translate(210.843812, 153.597373)"><g><path d="M 2.625 14.71875 C 1.925781 12.125 1.40625 9.78125 1.0625 7.6875 C 0.726562 5.601562 0.5625 3.925781 0.5625 2.65625 C 0.5625 0.90625 0.851562 -0.550781 1.4375 -1.71875 C 2.03125 -2.894531 2.816406 -3.835938 3.796875 -4.546875 C 4.785156 -5.265625 5.863281 -5.773438 7.03125 -6.078125 C 8.207031 -6.390625 9.390625 -6.546875 10.578125 -6.546875 C 11.765625 -6.546875 12.859375 -6.445312 13.859375 -6.25 C 13.929688 -7.78125 13.632812 -9.019531 12.96875 -9.96875 C 12.3125 -10.914062 11.472656 -11.390625 10.453125 -11.390625 C 8.929688 -11.390625 7.617188 -10.351562 6.515625 -8.28125 L 2.4375 -10.53125 C 3.113281 -12.050781 3.910156 -13.253906 4.828125 -14.140625 C 5.753906 -15.023438 6.722656 -15.660156 7.734375 -16.046875 C 8.742188 -16.429688 9.738281 -16.625 10.71875 -16.625 C 12.207031 -16.625 13.492188 -16.304688 14.578125 -15.671875 C 15.671875 -15.035156 16.550781 -14.210938 17.21875 -13.203125 C 17.894531 -12.191406 18.394531 -11.109375 18.71875 -9.953125 C 19.050781 -8.804688 19.21875 -7.710938 19.21875 -6.671875 C 19.21875 -5.867188 19.132812 -5.070312 18.96875 -4.28125 C 18.8125 -3.5 18.617188 -2.789062 18.390625 -2.15625 C 18.160156 -1.519531 17.960938 -1.039062 17.796875 -0.71875 C 15.472656 -1.332031 13.410156 -1.664062 11.609375 -1.71875 C 9.804688 -1.769531 8.390625 -1.429688 7.359375 -0.703125 C 6.328125 0.015625 5.8125 1.195312 5.8125 2.84375 C 5.8125 4.238281 5.972656 5.898438 6.296875 7.828125 C 6.617188 9.753906 7.054688 11.640625 7.609375 13.484375 Z M 2.625 14.71875 "/></g></g></g><g fill="#ffffff" fill-opacity="1"><g transform="translate(231.365098, 153.597373)"><g><path d="M 5.3125 0.1875 C 4.644531 0.1875 3.96875 0.128906 3.28125 0.015625 C 2.59375 -0.0976562 2.109375 -0.175781 1.828125 -0.21875 L 2.546875 -5.65625 C 4.347656 -5.40625 6.097656 -5.359375 7.796875 -5.515625 C 9.492188 -5.679688 10.988281 -6.140625 12.28125 -6.890625 C 11.257812 -8.390625 9.835938 -10.175781 8.015625 -12.25 C 6.191406 -14.320312 4.019531 -16.53125 1.5 -18.875 L 4.75 -22.4375 C 6.945312 -20.332031 8.757812 -18.550781 10.1875 -17.09375 C 11.613281 -15.632812 12.753906 -14.40625 13.609375 -13.40625 C 14.472656 -12.40625 15.15625 -11.546875 15.65625 -10.828125 C 16.082031 -11.921875 16.296875 -13.15625 16.296875 -14.53125 L 15.8125 -27.421875 L 21.046875 -27.421875 L 21.828125 -9.09375 C 21.878906 -7.945312 22.003906 -7.085938 22.203125 -6.515625 C 22.410156 -5.941406 22.789062 -5.554688 23.34375 -5.359375 C 23.90625 -5.160156 24.738281 -5.0625 25.84375 -5.0625 C 26.789062 -5.0625 27.46875 -4.816406 27.875 -4.328125 C 28.289062 -3.835938 28.5 -3.234375 28.5 -2.515625 C 28.5 -1.734375 28.234375 -1.085938 27.703125 -0.578125 C 27.179688 -0.0664062 26.4375 0.1875 25.46875 0.1875 C 23.5 0.1875 21.921875 0.0195312 20.734375 -0.3125 C 19.546875 -0.65625 18.644531 -1.179688 18.03125 -1.890625 C 17.414062 -2.597656 17.007812 -3.488281 16.8125 -4.5625 C 16.113281 -3.46875 15.273438 -2.59375 14.296875 -1.9375 C 13.328125 -1.289062 12.304688 -0.816406 11.234375 -0.515625 C 10.160156 -0.222656 9.109375 -0.0351562 8.078125 0.046875 C 7.054688 0.140625 6.132812 0.1875 5.3125 0.1875 Z M 5.3125 0.1875 "/></g></g></g><g fill="#ffffff" fill-opacity="1"><g transform="translate(256.866907, 153.597373)"><g><path d="M 0 0.1875 L 0.375 -5.0625 L 5.734375 -5.0625 C 7.828125 -5.0625 8.875 -5.644531 8.875 -6.8125 C 8.875 -7.113281 8.71875 -7.59375 8.40625 -8.25 C 8.09375 -8.914062 7.425781 -9.722656 6.40625 -10.671875 C 5.851562 -11.171875 5.257812 -11.703125 4.625 -12.265625 C 3.988281 -12.828125 3.382812 -13.363281 2.8125 -13.875 C 2.238281 -14.382812 1.765625 -14.835938 1.390625 -15.234375 C 1.015625 -15.640625 0.828125 -15.929688 0.828125 -16.109375 C 0.828125 -16.648438 0.878906 -17.269531 0.984375 -17.96875 C 1.097656 -18.675781 1.304688 -19.15625 1.609375 -19.40625 C 2.179688 -19.925781 3.109375 -20.570312 4.390625 -21.34375 C 5.679688 -22.125 7.242188 -22.972656 9.078125 -23.890625 C 10.910156 -24.816406 12.941406 -25.765625 15.171875 -26.734375 L 17.296875 -22.171875 C 15.203125 -21.273438 13.28125 -20.398438 11.53125 -19.546875 C 9.78125 -18.703125 8.242188 -17.890625 6.921875 -17.109375 C 8.648438 -15.691406 10.03125 -14.414062 11.0625 -13.28125 C 12.101562 -12.144531 12.878906 -11.117188 13.390625 -10.203125 C 13.898438 -9.296875 14.234375 -8.476562 14.390625 -7.75 C 14.554688 -7.03125 14.640625 -6.394531 14.640625 -5.84375 C 14.640625 -5.238281 14.492188 -4.59375 14.203125 -3.90625 C 13.921875 -3.226562 13.410156 -2.578125 12.671875 -1.953125 C 11.941406 -1.328125 10.914062 -0.8125 9.59375 -0.40625 C 8.269531 -0.0078125 6.570312 0.1875 4.5 0.1875 Z M 0 0.1875 "/></g></g></g><g fill="#ffffff" fill-opacity="1"><g transform="translate(119.367299, 207.208657)"><g><path d="M 20.46875 0 L 16.03125 0 L 14.421875 -4.921875 L 6.265625 -4.921875 L 4.65625 0 L 0.328125 0 L 7.6875 -21.328125 L 13.09375 -21.328125 Z M 10.140625 -16.875 L 7.390625 -8.453125 L 13.265625 -8.453125 L 10.5 -16.875 Z M 10.140625 -16.875 "/></g></g></g><g fill="#ffffff" fill-opacity="1"><g transform="translate(140.157912, 207.208657)"><g><path d="M 9.375 0.3125 C 7.820312 0.3125 6.445312 -0.0078125 5.25 -0.65625 C 4.050781 -1.3125 3.113281 -2.265625 2.4375 -3.515625 C 1.769531 -4.765625 1.4375 -6.269531 1.4375 -8.03125 C 1.4375 -9.800781 1.769531 -11.3125 2.4375 -12.5625 C 3.113281 -13.820312 4.046875 -14.773438 5.234375 -15.421875 C 6.421875 -16.066406 7.78125 -16.390625 9.3125 -16.390625 C 12.695312 -16.390625 14.867188 -15.160156 15.828125 -12.703125 L 13.0625 -10.71875 L 12.75 -10.71875 C 12.414062 -11.476562 11.984375 -12.039062 11.453125 -12.40625 C 10.921875 -12.78125 10.207031 -12.96875 9.3125 -12.96875 C 8.144531 -12.96875 7.234375 -12.5625 6.578125 -11.75 C 5.929688 -10.945312 5.609375 -9.707031 5.609375 -8.03125 C 5.609375 -6.382812 5.9375 -5.15625 6.59375 -4.34375 C 7.25 -3.53125 8.175781 -3.125 9.375 -3.125 C 10.25 -3.125 10.988281 -3.359375 11.59375 -3.828125 C 12.207031 -4.296875 12.644531 -4.972656 12.90625 -5.859375 L 13.21875 -5.890625 L 16.09375 -4.3125 C 15.6875 -2.957031 14.929688 -1.847656 13.828125 -0.984375 C 12.722656 -0.117188 11.238281 0.3125 9.375 0.3125 Z M 9.375 0.3125 "/></g></g></g><g fill="#ffffff" fill-opacity="1"><g transform="translate(156.746634, 207.208657)"><g><path d="M 6.265625 0.3125 C 5.234375 0.3125 4.335938 0.125 3.578125 -0.25 C 2.828125 -0.632812 2.242188 -1.191406 1.828125 -1.921875 C 1.421875 -2.660156 1.21875 -3.546875 1.21875 -4.578125 C 1.21875 -5.535156 1.421875 -6.335938 1.828125 -6.984375 C 2.242188 -7.628906 2.878906 -8.15625 3.734375 -8.5625 C 4.585938 -8.976562 5.707031 -9.300781 7.09375 -9.53125 C 8.050781 -9.6875 8.78125 -9.851562 9.28125 -10.03125 C 9.78125 -10.21875 10.117188 -10.425781 10.296875 -10.65625 C 10.472656 -10.894531 10.5625 -11.191406 10.5625 -11.546875 C 10.5625 -12.066406 10.378906 -12.460938 10.015625 -12.734375 C 9.660156 -13.003906 9.066406 -13.140625 8.234375 -13.140625 C 7.335938 -13.140625 6.484375 -12.941406 5.671875 -12.546875 C 4.867188 -12.148438 4.171875 -11.625 3.578125 -10.96875 L 3.28125 -10.96875 L 1.59375 -13.515625 C 2.40625 -14.421875 3.398438 -15.125 4.578125 -15.625 C 5.753906 -16.132812 7.039062 -16.390625 8.4375 -16.390625 C 10.5625 -16.390625 12.097656 -15.9375 13.046875 -15.03125 C 14.003906 -14.132812 14.484375 -12.851562 14.484375 -11.1875 L 14.484375 -4.203125 C 14.484375 -3.484375 14.800781 -3.125 15.4375 -3.125 C 15.675781 -3.125 15.910156 -3.164062 16.140625 -3.25 L 16.359375 -3.1875 L 16.640625 -0.375 C 16.421875 -0.226562 16.109375 -0.109375 15.703125 -0.015625 C 15.304688 0.0664062 14.867188 0.109375 14.390625 0.109375 C 13.429688 0.109375 12.679688 -0.0703125 12.140625 -0.4375 C 11.597656 -0.800781 11.210938 -1.378906 10.984375 -2.171875 L 10.671875 -2.203125 C 9.890625 -0.523438 8.421875 0.3125 6.265625 0.3125 Z M 7.5625 -2.71875 C 8.488281 -2.71875 9.234375 -3.03125 9.796875 -3.65625 C 10.359375 -4.28125 10.640625 -5.148438 10.640625 -6.265625 L 10.640625 -7.90625 L 10.359375 -7.96875 C 10.117188 -7.769531 9.800781 -7.601562 9.40625 -7.46875 C 9.007812 -7.34375 8.441406 -7.21875 7.703125 -7.09375 C 6.828125 -6.945312 6.195312 -6.695312 5.8125 -6.34375 C 5.425781 -5.988281 5.234375 -5.484375 5.234375 -4.828125 C 5.234375 -4.140625 5.4375 -3.613281 5.84375 -3.25 C 6.257812 -2.894531 6.832031 -2.71875 7.5625 -2.71875 Z M 7.5625 -2.71875 "/></g></g></g><g fill="#ffffff" fill-opacity="1"><g transform="translate(173.714694, 207.208657)"><g><path d="M 7.953125 0.3125 C 6.679688 0.3125 5.554688 0.00390625 4.578125 -0.609375 C 3.597656 -1.234375 2.828125 -2.171875 2.265625 -3.421875 C 1.710938 -4.671875 1.4375 -6.207031 1.4375 -8.03125 C 1.4375 -9.875 1.722656 -11.421875 2.296875 -12.671875 C 2.867188 -13.921875 3.65625 -14.851562 4.65625 -15.46875 C 5.664062 -16.082031 6.832031 -16.390625 8.15625 -16.390625 C 9.15625 -16.390625 10.019531 -16.21875 10.75 -15.875 C 11.488281 -15.53125 12.113281 -14.992188 12.625 -14.265625 L 12.921875 -14.34375 L 12.921875 -22.546875 L 16.96875 -22.546875 L 16.96875 0 L 12.921875 0 L 12.921875 -2.09375 L 12.625 -2.140625 C 12.175781 -1.378906 11.5625 -0.78125 10.78125 -0.34375 C 10 0.09375 9.054688 0.3125 7.953125 0.3125 Z M 9.265625 -3.125 C 10.398438 -3.125 11.296875 -3.53125 11.953125 -4.34375 C 12.617188 -5.15625 12.953125 -6.382812 12.953125 -8.03125 C 12.953125 -9.6875 12.617188 -10.921875 11.953125 -11.734375 C 11.296875 -12.554688 10.398438 -12.96875 9.265625 -12.96875 C 8.078125 -12.96875 7.171875 -12.570312 6.546875 -11.78125 C 5.921875 -10.988281 5.609375 -9.738281 5.609375 -8.03125 C 5.609375 -6.34375 5.921875 -5.101562 6.546875 -4.3125 C 7.171875 -3.519531 8.078125 -3.125 9.265625 -3.125 Z M 9.265625 -3.125 "/></g></g></g><g fill="#ffffff" fill-opacity="1"><g transform="translate(193.00254, 207.208657)"><g><path d="M 15.90625 -7.140625 L 5.5625 -7.140625 C 5.675781 -5.734375 6.070312 -4.710938 6.75 -4.078125 C 7.4375 -3.441406 8.367188 -3.125 9.546875 -3.125 C 10.460938 -3.125 11.207031 -3.296875 11.78125 -3.640625 C 12.351562 -3.984375 12.816406 -4.503906 13.171875 -5.203125 L 13.484375 -5.203125 L 16.15625 -3.484375 C 15.632812 -2.359375 14.84375 -1.441406 13.78125 -0.734375 C 12.71875 -0.0351562 11.304688 0.3125 9.546875 0.3125 C 7.878906 0.3125 6.4375 -0.00390625 5.21875 -0.640625 C 4.007812 -1.273438 3.078125 -2.21875 2.421875 -3.46875 C 1.765625 -4.71875 1.4375 -6.238281 1.4375 -8.03125 C 1.4375 -9.863281 1.78125 -11.40625 2.46875 -12.65625 C 3.164062 -13.914062 4.101562 -14.851562 5.28125 -15.46875 C 6.457031 -16.082031 7.78125 -16.390625 9.25 -16.390625 C 11.519531 -16.390625 13.257812 -15.785156 14.46875 -14.578125 C 15.6875 -13.378906 16.296875 -11.613281 16.296875 -9.28125 C 16.296875 -8.4375 16.265625 -7.78125 16.203125 -7.3125 Z M 12.421875 -9.75 C 12.390625 -10.96875 12.109375 -11.859375 11.578125 -12.421875 C 11.046875 -12.984375 10.269531 -13.265625 9.25 -13.265625 C 7.207031 -13.265625 6.003906 -12.09375 5.640625 -9.75 Z M 12.421875 -9.75 "/></g></g></g><g fill="#ffffff" fill-opacity="1"><g transform="translate(210.495835, 207.208657)"><g><path d="M 2.3125 0 L 2.3125 -16.09375 L 6.203125 -16.09375 L 6.203125 -13.9375 L 6.5 -13.875 C 7.03125 -14.738281 7.644531 -15.375 8.34375 -15.78125 C 9.050781 -16.1875 9.957031 -16.390625 11.0625 -16.390625 C 12.269531 -16.390625 13.242188 -16.148438 13.984375 -15.671875 C 14.722656 -15.191406 15.265625 -14.488281 15.609375 -13.5625 L 15.921875 -13.5625 C 16.410156 -14.53125 17.046875 -15.242188 17.828125 -15.703125 C 18.609375 -16.160156 19.585938 -16.390625 20.765625 -16.390625 C 24.097656 -16.390625 25.765625 -14.535156 25.765625 -10.828125 L 25.765625 0 L 21.71875 0 L 21.71875 -10.3125 C 21.71875 -11.257812 21.53125 -11.941406 21.15625 -12.359375 C 20.789062 -12.773438 20.203125 -12.984375 19.390625 -12.984375 C 17.171875 -12.984375 16.0625 -11.5 16.0625 -8.53125 L 16.0625 0 L 12.015625 0 L 12.015625 -10.3125 C 12.015625 -11.257812 11.828125 -11.941406 11.453125 -12.359375 C 11.078125 -12.773438 10.484375 -12.984375 9.671875 -12.984375 C 8.628906 -12.984375 7.816406 -12.632812 7.234375 -11.9375 C 6.648438 -11.238281 6.359375 -10.132812 6.359375 -8.625 L 6.359375 0 Z M 2.3125 0 "/></g></g></g><g fill="#ffffff" fill-opacity="1"><g transform="translate(238.333362, 207.208657)"><g><path d="M 3.5625 6.828125 C 2.875 6.828125 2.25 6.769531 1.6875 6.65625 C 1.125 6.550781 0.671875 6.414062 0.328125 6.25 L 0.96875 2.96875 L 1.21875 2.890625 C 1.46875 3.015625 1.769531 3.113281 2.125 3.1875 C 2.488281 3.269531 2.859375 3.3125 3.234375 3.3125 C 3.890625 3.3125 4.429688 3.222656 4.859375 3.046875 C 5.296875 2.878906 5.664062 2.597656 5.96875 2.203125 C 6.269531 1.816406 6.535156 1.269531 6.765625 0.5625 L 0.34375 -16.09375 L 4.578125 -16.09375 L 8.578125 -4.90625 L 8.921875 -4.90625 L 12.828125 -16.09375 L 16.9375 -16.09375 L 10.46875 1 C 9.957031 2.382812 9.390625 3.5 8.765625 4.34375 C 8.148438 5.1875 7.421875 5.8125 6.578125 6.21875 C 5.742188 6.625 4.738281 6.828125 3.5625 6.828125 Z M 3.5625 6.828125 "/></g></g></g></svg>